<?xml version="1.0" encoding="UTF-8"?>
<!DOCTYPE svg PUBLIC "-//W3C//DTD SVG 1.1//EN" "http://www.w3.org/Graphics/SVG/1.1/DTD/svg11.dtd">
<svg xmlns="http://www.w3.org/2000/svg" version="1.1" width="512px" height="512px" style="shape-rendering:geometricPrecision; text-rendering:geometricPrecision; image-rendering:optimizeQuality; fill-rule:evenodd; clip-rule:evenodd" xmlns:xlink="http://www.w3.org/1999/xlink">
<g transform="translate(0,0) scale(0.0400000,0.040000)" fill="currentColor" stroke="none">
<path stroke-width="0.5" d="M 28.99,252 c 2.99,-14.96 9.42,-18.66 19.48,-29 c 5.47,-3.58 13.95,-12.06 17.53,-17.53 c 12.51,-12.47 25,-24.96 37.47,-37.47 c 3.2,-1.82 5.71,-4.33 7.53,-7.53 c 28.18,-28.14 56.33,-56.29 84.47,-84.47 c 9.42,-5.92 13.4,-7.29 25.05,-7.02 c 20.6,4.72 29.74,16.12 29.46,37.53 c -1.44,6.86 -3.32,10.39 -6.98,16.02 c -33,32.98 -66,65.96 -99,98.94 c -0.52,0.39 -0.63,0.85 -0.34,1.37 c 104.95,0.15 209.9,0.21 314.85,0.18 c 10.5,2.91 14.45,4.74 21.93,12.96 c 1.47,3.89 4.72,5.94 4.76,10.38 c 6.59,17.33 -4.85,36.03 -21.84,41.44 c -1.7,0.09 -3.31,0.48 -4.85,1.18 c -104.95,-0.03 -209.9,0.03 -314.85,0.18 c -0.29,0.52 -0.18,0.98 0.34,1.37 c 33,32.98 66,65.96 99,98.94 c 6.51,10.45 9.45,17.55 5.2,30.17 c -1.41,9.06 -12.5,20.15 -21.56,21.56 c -12.51,4.26 -20.68,1.33 -31.17,-5.2 c -48.28,-48.35 -96.04,-96.65 -143.94,-145 c -12.88,-10.05 -24.21,-21.35 -22.54,-39 Z"/></g>
</svg>
